<?xml version="1.0" standalone="no"?>
<!DOCTYPE svg PUBLIC "-//W3C//DTD SVG 1.1//EN" "http://www.w3.org/Graphics/SVG/1.1/DTD/svg11.dtd">
<!--Generator: Xara Designer (www.xara.com), SVG filter version: 5.0.0.2-->
<svg stroke-width="0.501" stroke-linejoin="bevel" fill-rule="evenodd" xmlns:xlink="http://www.w3.org/1999/xlink" xmlns="http://www.w3.org/2000/svg" version="1.1" overflow="visible" width="159pt" height="36pt" viewBox="0 0 159 36">
 <defs>
  <marker id="DefaultArrow2" markerUnits="strokeWidth" viewBox="0 0 1 1" markerWidth="1" markerHeight="1" overflow="visible" orient="auto">
   <!-- REF_ARROW_STRAIGHT (-2) -->
   <g transform="scale(0.0092592592)">
    <!-- 1/108 -->
    <path d="M -9 54 L -9 -54 L 117 0 z"/>
   </g>
  </marker>
  <marker id="DefaultArrow3" markerUnits="strokeWidth" viewBox="0 0 1 1" markerWidth="1" markerHeight="1" overflow="visible" orient="auto">
   <!-- REF_ARROW_ANGLED -->
   <g transform="scale(0.0092592592)">
    <path d="M -27 54 L -9 0 L -27 -54 L 135 0 z"/>
   </g>
  </marker>
  <marker id="DefaultArrow4" markerUnits="strokeWidth" viewBox="0 0 1 1" markerWidth="1" markerHeight="1" overflow="visible" orient="auto">
   <!-- REF_ARROW_ROUNDED -->
   <g transform="scale(0.0092592592)">
    <path d="M -9,0 L -9,-45 C -9,-51.708 2.808,-56.580 9,-54 L 117,-9 C 120.916,-7.369 126.000,-4.242 126,0 C 126,4.242 120.916,7.369 117,9 L 9,54 C 2.808,56.580 -9,51.708 -9,45 z"/>
   </g>
  </marker>
  <marker id="DefaultArrow5" markerUnits="strokeWidth" viewBox="0 0 1 1" markerWidth="1" markerHeight="1" overflow="visible" orient="auto">
   <!-- REF_ARROW_SPOT -->
   <g transform="scale(0.0092592592)">
    <path d="M -54, 0 C -54,29.807 -29.807,54 0,54 C 29.807,54 54,29.807 54,0 C 54,-29.807 29.807,-54 0,-54 C -29.807,-54 -54,-29.807 -54,0 z"/>
   </g>
  </marker>
  <marker id="DefaultArrow6" markerUnits="strokeWidth" viewBox="0 0 1 1" markerWidth="1" markerHeight="1" overflow="visible" orient="auto">
   <!-- REF_ARROW_DIAMOND -->
   <g transform="scale(0.0092592592)">
    <path d="M -63,0 L 0,63 L 63,0 L 0,-63 z"/>
   </g>
  </marker>
  <marker id="DefaultArrow7" markerUnits="strokeWidth" viewBox="0 0 1 1" markerWidth="1" markerHeight="1" overflow="visible" orient="auto">
   <!-- REF_ARROW_FEATHER -->
   <g transform="scale(0.0092592592)">
    <path d="M 18,-54 L 108,-54 L 63,0 L 108,54 L 18, 54 L -36,0 z"/>
   </g>
  </marker>
  <marker id="DefaultArrow8" markerUnits="strokeWidth" viewBox="0 0 1 1" markerWidth="1" markerHeight="1" overflow="visible" orient="auto">
   <!-- REF_ARROW_FEATHER2 -->
   <g transform="scale(0.0092592592)">
    <path d="M -36,0 L 18,-54 L 54,-54 L 18,-18 L 27,-18 L 63,-54 L 99,-54 L 63,-18 L 72,-18 L 108,-54 L 144,-54 L 90,0 L 144,54 L 108,54 L 72,18 L 63,18 L 99,54 L 63,54 L 27,18 L 18,18 L 54,54 L 18,54 z"/>
   </g>
  </marker>
  <marker id="DefaultArrow9" markerUnits="strokeWidth" viewBox="0 0 1 1" markerWidth="1" markerHeight="1" overflow="visible" orient="auto">
   <!-- REF_ARROW_HOLLOWDIAMOND -->
   <g transform="scale(0.0092592592)">
    <path d="M 0,45 L -45,0 L 0, -45 L 45, 0 z M 0, 63 L-63, 0 L 0, -63 L 63, 0 z"/>
   </g>
  </marker>
  <filter id="StainedFilter">
   <feBlend mode="multiply" in2="BackgroundImage" in="SourceGraphic" result="blend"/>
   <feComposite in="blend" in2="SourceAlpha" operator="in" result="comp"/>
  </filter>
  <filter id="BleachFilter">
   <feBlend mode="screen" in2="BackgroundImage" in="SourceGraphic" result="blend"/>
   <feComposite in="blend" in2="SourceAlpha" operator="in" result="comp"/>
  </filter>
  <filter id="InvertTransparencyBitmapFilter">
   <feComponentTransfer>
    <feFuncR type="gamma" amplitude="1.055" exponent=".416666666" offset="-0.055"/>
    <feFuncG type="gamma" amplitude="1.055" exponent=".416666666" offset="-0.055"/>
    <feFuncB type="gamma" amplitude="1.055" exponent=".416666666" offset="-0.055"/>
   </feComponentTransfer>
   <feComponentTransfer>
    <feFuncR type="linear" slope="-1" intercept="1"/>
    <feFuncG type="linear" slope="-1" intercept="1"/>
    <feFuncB type="linear" slope="-1" intercept="1"/>
    <feFuncA type="linear" slope="1" intercept="0"/>
   </feComponentTransfer>
   <feComponentTransfer>
    <feFuncR type="gamma" amplitude="1" exponent="2.4" offset="0"/>
    <feFuncG type="gamma" amplitude="1" exponent="2.4" offset="0"/>
    <feFuncB type="gamma" amplitude="1" exponent="2.4" offset="0"/>
   </feComponentTransfer>
  </filter>
 </defs>
 <g id="Document" fill="none" stroke="black" font-family="Times New Roman" font-size="16" transform="scale(1 -1)">
  <g id="Spread" transform="translate(0 -36)">
   <g id="Layer 1">
    <g id="Group" stroke="none">
     <path d="M 0,36 L 159,36 L 159,0 L 0,0 L 0,36"/>
     <g id="Group_1" stroke-linecap="round" stroke-miterlimit="79.8403193612775">
      <g id="Group_2">
       <g id="Group_3">
        <g id="Group_4">
         <path d="M 42.922,9.776 C 41.892,10.25 41.029,10.885 40.334,11.683 C 39.638,12.481 39.114,13.372 38.763,14.356 C 38.41,15.341 38.234,16.349 38.234,17.382 C 38.238,18.445 38.414,19.436 38.761,20.357 C 39.108,21.277 39.599,22.094 40.233,22.808 C 40.867,23.521 41.617,24.099 42.483,24.539 C 43.093,24.847 43.736,25.065 44.411,25.197 C 45.087,25.328 45.762,25.392 46.437,25.389 C 46.937,25.395 47.548,25.316 48.268,25.152 C 48.988,24.987 49.762,24.696 50.588,24.278 L 50.588,21.272 C 50.292,21.474 49.934,21.68 49.515,21.889 C 49.096,22.099 48.631,22.276 48.121,22.42 C 47.612,22.564 47.072,22.639 46.503,22.645 C 45.992,22.646 45.485,22.586 44.983,22.465 C 44.481,22.344 44.007,22.153 43.561,21.893 C 43.131,21.63 42.736,21.28 42.376,20.842 C 42.017,20.404 41.728,19.884 41.511,19.283 C 41.293,18.682 41.181,18.004 41.175,17.251 C 41.184,16.186 41.417,15.244 41.876,14.427 C 42.335,13.609 42.968,12.968 43.776,12.503 C 44.583,12.038 45.514,11.801 46.568,11.792 C 46.979,11.791 47.384,11.835 47.782,11.923 C 48.18,12.012 48.56,12.153 48.922,12.348 C 49.593,12.725 50.123,13.18 50.51,13.713 C 50.898,14.245 51.181,14.799 51.361,15.372 C 51.54,15.945 51.654,16.482 51.702,16.982 C 51.751,17.482 51.772,17.888 51.765,18.199 L 51.765,32.251 L 54.636,32.251 L 54.636,18.199 C 54.628,16.378 54.293,14.784 53.632,13.415 C 52.971,12.047 52.033,10.98 50.82,10.215 C 49.607,9.45 48.167,9.061 46.503,9.048 C 45.146,9.06 43.952,9.303 42.922,9.776 Z" fill-rule="nonzero" stroke-linejoin="round" fill="#73c02c" stroke-width="0" marker-start="none" marker-end="none" stroke-miterlimit="159.36127744511"/>
         <path d="M 60.365,9.687 C 59.378,10.105 58.512,10.687 57.768,11.431 C 57.023,12.175 56.442,13.04 56.023,14.026 C 55.605,15.013 55.393,16.077 55.386,17.22 C 55.393,18.363 55.605,19.427 56.023,20.413 C 56.442,21.399 57.023,22.264 57.768,23.008 C 58.512,23.753 59.378,24.334 60.365,24.752 C 61.351,25.17 62.416,25.382 63.559,25.39 C 64.702,25.382 65.767,25.17 66.754,24.752 C 67.74,24.334 68.606,23.753 69.35,23.008 C 70.095,22.264 70.676,21.399 71.094,20.413 C 71.513,19.427 71.725,18.363 71.732,17.22 C 71.725,16.077 71.513,15.013 71.094,14.026 C 70.676,13.04 70.095,12.175 69.35,11.431 C 68.606,10.687 67.74,10.105 66.754,9.687 C 65.767,9.269 64.702,9.057 63.559,9.049 C 62.416,9.057 61.351,9.269 60.365,9.687 Z M 66.296,12.496 C 67.078,12.955 67.688,13.591 68.124,14.403 C 68.562,15.216 68.784,16.155 68.79,17.22 C 68.784,18.285 68.562,19.224 68.124,20.036 C 67.688,20.848 67.078,21.484 66.296,21.944 C 65.514,22.404 64.601,22.638 63.559,22.646 C 62.527,22.638 61.619,22.406 60.837,21.951 C 60.054,21.495 59.442,20.862 59.001,20.05 C 58.559,19.239 58.335,18.295 58.328,17.22 C 58.335,16.143 58.559,15.201 59.001,14.389 C 59.442,13.577 60.054,12.944 60.837,12.488 C 61.619,12.033 62.527,11.801 63.559,11.793 C 64.601,11.802 65.514,12.036 66.296,12.496 Z" fill-rule="nonzero" stroke-linejoin="round" fill="#73c02c" stroke-width="0" marker-start="none" marker-end="none" stroke-miterlimit="159.36127744511"/>
         <path d="M 85.204,9.687 C 84.217,10.105 83.351,10.687 82.607,11.431 C 81.862,12.175 81.281,13.04 80.862,14.026 C 80.444,15.013 80.232,16.077 80.225,17.22 C 80.232,18.363 80.444,19.427 80.862,20.413 C 81.281,21.399 81.862,22.264 82.607,23.008 C 83.351,23.753 84.217,24.334 85.204,24.752 C 86.19,25.17 87.255,25.382 88.398,25.39 C 89.541,25.382 90.606,25.17 91.593,24.752 C 92.579,24.334 93.445,23.753 94.189,23.008 C 94.934,22.264 95.515,21.399 95.933,20.413 C 96.352,19.427 96.564,18.363 96.571,17.22 C 96.564,16.077 96.352,15.013 95.933,14.026 C 95.515,13.04 94.934,12.175 94.189,11.431 C 93.445,10.687 92.579,10.105 91.593,9.687 C 90.606,9.269 89.541,9.057 88.398,9.049 C 87.255,9.057 86.19,9.269 85.204,9.687 Z M 91.135,12.496 C 91.917,12.955 92.527,13.591 92.963,14.403 C 93.401,15.216 93.623,16.155 93.629,17.22 C 93.623,18.285 93.401,19.224 92.963,20.036 C 92.527,20.848 91.917,21.484 91.135,21.944 C 90.353,22.404 89.441,22.638 88.398,22.646 C 87.366,22.638 86.458,22.406 85.676,21.951 C 84.893,21.495 84.281,20.862 83.84,20.05 C 83.398,19.239 83.174,18.295 83.167,17.22 C 83.174,16.143 83.398,15.201 83.84,14.389 C 84.281,13.577 84.893,12.944 85.676,12.488 C 86.458,12.033 87.366,11.801 88.398,11.793 C 89.441,11.802 90.353,12.036 91.135,12.496 Z" fill-rule="nonzero" stroke-linejoin="round" fill="#24404c" stroke-width="0" marker-start="none" marker-end="none" stroke-miterlimit="159.36127744511"/>
         <path d="M 97.321,2.251 L 97.321,16.173 C 97.328,17.633 97.497,18.889 97.828,19.943 C 98.159,20.996 98.607,21.875 99.172,22.58 C 99.737,23.284 100.373,23.842 101.082,24.253 C 101.79,24.665 102.525,24.958 103.288,25.133 C 104.051,25.308 104.795,25.393 105.522,25.389 C 106.627,25.385 107.677,25.188 108.674,24.798 C 109.67,24.408 110.557,23.847 111.334,23.114 C 112.112,22.381 112.725,21.499 113.173,20.467 C 113.621,19.436 113.85,18.277 113.859,16.99 C 113.849,15.722 113.618,14.595 113.168,13.612 C 112.716,12.628 112.107,11.797 111.338,11.119 C 110.57,10.442 109.705,9.927 108.743,9.577 C 107.78,9.226 106.783,9.05 105.751,9.048 C 104.97,9.048 104.194,9.172 103.426,9.42 C 102.656,9.669 101.971,10.046 101.369,10.551 L 101.369,13.558 C 102.07,12.898 102.753,12.436 103.417,12.172 C 104.081,11.909 104.74,11.782 105.391,11.792 C 106.499,11.8 107.466,12.024 108.292,12.467 C 109.118,12.909 109.76,13.523 110.219,14.311 C 110.678,15.098 110.911,16.013 110.918,17.055 C 110.906,18.185 110.661,19.166 110.181,20.001 C 109.702,20.836 109.06,21.484 108.253,21.944 C 107.447,22.405 106.548,22.638 105.555,22.645 C 104.965,22.653 104.359,22.563 103.737,22.375 C 103.116,22.186 102.538,21.85 102.003,21.366 C 101.468,20.882 101.035,20.2 100.704,19.322 C 100.372,18.443 100.202,17.317 100.192,15.944 L 100.192,2.251 L 97.321,2.251 Z" fill-rule="nonzero" stroke-linejoin="round" fill="#24404c" stroke-width="0" marker-start="none" marker-end="none" stroke-miterlimit="159.36127744511"/>
         <path d="M 124.147,9.377 L 124.147,25.062 L 127.018,25.062 L 127.018,9.377 L 124.147,9.377 Z M 124.568,27.116 C 124.313,27.301 124.13,27.525 124.017,27.79 C 123.905,28.054 123.85,28.31 123.852,28.558 C 123.85,28.805 123.905,29.061 124.017,29.326 C 124.13,29.591 124.313,29.815 124.568,30 C 124.822,30.184 125.16,30.281 125.583,30.289 C 126.005,30.281 126.343,30.184 126.598,30 C 126.852,29.815 127.035,29.591 127.148,29.326 C 127.261,29.061 127.316,28.805 127.314,28.558 C 127.316,28.31 127.261,28.054 127.148,27.79 C 127.035,27.525 126.852,27.301 126.598,27.116 C 126.343,26.931 126.005,26.835 125.583,26.827 C 125.16,26.835 124.822,26.931 124.568,27.116 Z" fill-rule="nonzero" stroke-linejoin="round" fill="#24404c" stroke-width="0" marker-start="none" marker-end="none" stroke-miterlimit="159.36127744511"/>
         <path d="M 132.747,9.687 C 131.76,10.105 130.894,10.687 130.149,11.431 C 129.405,12.175 128.824,13.04 128.405,14.026 C 127.987,15.013 127.775,16.077 127.768,17.22 C 127.775,18.363 127.987,19.427 128.405,20.413 C 128.824,21.399 129.405,22.264 130.149,23.008 C 130.894,23.753 131.76,24.334 132.747,24.752 C 133.733,25.17 134.798,25.382 135.941,25.39 C 137.084,25.382 138.149,25.17 139.136,24.752 C 140.122,24.334 140.988,23.753 141.732,23.008 C 142.477,22.264 143.058,21.399 143.476,20.413 C 143.895,19.427 144.107,18.363 144.114,17.22 C 144.107,16.077 143.895,15.013 143.476,14.026 C 143.058,13.04 142.477,12.175 141.732,11.431 C 140.988,10.687 140.122,10.105 139.136,9.687 C 138.149,9.269 137.084,9.057 135.941,9.049 C 134.798,9.057 133.733,9.269 132.747,9.687 Z M 138.678,12.496 C 139.46,12.955 140.07,13.591 140.506,14.403 C 140.944,15.216 141.166,16.155 141.172,17.22 C 141.166,18.285 140.944,19.224 140.506,20.036 C 140.07,20.848 139.46,21.484 138.678,21.944 C 137.896,22.404 136.984,22.638 135.941,22.646 C 134.909,22.638 134.001,22.406 133.219,21.951 C 132.436,21.495 131.824,20.862 131.383,20.05 C 130.94,19.239 130.716,18.295 130.71,17.22 C 130.716,16.143 130.94,15.201 131.383,14.389 C 131.824,13.577 132.436,12.944 133.219,12.488 C 134.001,12.033 134.909,11.801 135.941,11.793 C 136.984,11.802 137.896,12.036 138.678,12.496 Z" fill-rule="nonzero" stroke-linejoin="round" fill="#24404c" stroke-width="0" marker-start="none" marker-end="none" stroke-miterlimit="159.36127744511"/>
         <path d="M 144.866,9.377 L 144.866,17.776 C 144.853,18.526 144.918,19.306 145.061,20.115 C 145.203,20.924 145.497,21.703 145.944,22.453 C 146.39,23.204 147.065,23.867 147.966,24.442 C 148.508,24.768 149.084,25.007 149.691,25.161 C 150.299,25.315 150.923,25.391 151.564,25.39 C 152.204,25.391 152.828,25.315 153.436,25.161 C 154.044,25.007 154.619,24.768 155.161,24.442 C 156.063,23.867 156.737,23.204 157.183,22.453 C 157.63,21.703 157.925,20.924 158.067,20.115 C 158.209,19.306 158.274,18.526 158.261,17.776 L 158.261,9.377 L 155.39,9.377 L 155.39,17.776 C 155.401,18.222 155.368,18.72 155.291,19.27 C 155.213,19.819 155.025,20.356 154.726,20.88 C 154.427,21.404 153.951,21.85 153.297,22.221 C 153.033,22.367 152.752,22.475 152.455,22.544 C 152.158,22.612 151.861,22.646 151.564,22.646 C 151.266,22.646 150.969,22.612 150.672,22.544 C 150.375,22.475 150.094,22.367 149.83,22.221 C 149.176,21.85 148.7,21.404 148.401,20.88 C 148.102,20.356 147.914,19.819 147.837,19.27 C 147.759,18.72 147.726,18.222 147.737,17.776 L 147.737,9.377 L 144.866,9.377 Z" fill-rule="nonzero" stroke-linejoin="round" fill="#24404c" stroke-width="0" marker-start="none" marker-end="none" stroke-miterlimit="159.36127744511"/>
         <path d="M 11.986,7.908 L 11.986,28.091 C 11.986,29.144 12.842,30 13.895,30 L 17.576,30 C 18.629,30 19.485,29.144 19.485,28.091 L 19.485,7.908 C 19.485,6.855 18.629,5.999 17.576,5.999 L 13.895,5.999 C 12.842,5.999 11.986,6.855 11.986,7.908 Z" stroke-linejoin="miter" fill="#24404c" stroke-width="0" marker-start="none" marker-end="none" stroke-miterlimit="159.36127744511"/>
         <path d="M 14.985,1.5 L 14.985,4.499 L 16.486,4.499 L 16.486,1.5 C 16.486,1.086 16.15,0.75 15.736,0.75 L 15.735,0.75 C 15.321,0.75 14.985,1.086 14.985,1.5 Z M 14.985,31.5 L 14.985,34.499 C 14.985,34.913 15.321,35.249 15.735,35.249 L 15.736,35.249 C 16.15,35.249 16.486,34.913 16.486,34.499 L 16.486,31.5 L 14.985,31.5 Z" stroke-linejoin="miter" fill="#24404c" stroke-width="0" marker-start="none" marker-end="none" stroke-miterlimit="159.36127744511"/>
         <path d="M 23.235,16.908 L 23.235,28.091 C 23.235,29.144 24.091,30 25.144,30 L 28.825,30 C 29.878,30 30.734,29.144 30.734,28.091 L 30.734,16.908 C 30.734,15.855 29.878,14.999 28.825,14.999 L 25.144,14.999 C 24.091,14.999 23.235,15.855 23.235,16.908 Z" stroke-linejoin="miter" fill="#24404c" stroke-width="0" marker-start="none" marker-end="none" stroke-miterlimit="159.36127744511"/>
         <path d="M 26.234,6.75 L 26.234,13.499 L 27.735,13.499 L 27.735,6.75 C 27.735,6.336 27.399,6 26.985,6 L 26.984,6 C 26.57,6 26.234,6.336 26.234,6.75 Z M 26.234,31.5 L 26.234,34.499 C 26.234,34.913 26.57,35.249 26.984,35.249 L 26.985,35.249 C 27.399,35.249 27.735,34.913 27.735,34.499 L 27.735,31.5 L 26.234,31.5 Z" stroke-linejoin="miter" fill="#24404c" stroke-width="0" marker-start="none" marker-end="none" stroke-miterlimit="159.36127744511"/>
         <path d="M 0.737,7.909 L 0.737,19.092 C 0.737,20.145 1.593,21.001 2.646,21.001 L 6.327,21.001 C 7.38,21.001 8.236,20.145 8.236,19.092 L 8.236,7.909 C 8.236,6.856 7.38,6 6.327,6 L 2.646,6 C 1.593,6 0.737,6.856 0.737,7.909 Z" stroke-linejoin="miter" fill="#24404c" stroke-width="0" marker-start="none" marker-end="none" stroke-miterlimit="159.36127744511"/>
         <path d="M 3.736,1.5 L 3.736,4.5 L 5.237,4.5 L 5.237,1.5 C 5.237,1.087 4.901,0.751 4.487,0.751 L 4.486,0.751 C 4.072,0.751 3.736,1.087 3.736,1.5 Z M 3.736,22.501 L 3.736,29.25 C 3.736,29.664 4.072,30 4.486,30 L 4.487,30 C 4.901,30 5.237,29.664 5.237,29.25 L 5.237,22.501 L 3.736,22.501 Z" stroke-linejoin="miter" fill="#24404c" stroke-width="0" marker-start="none" marker-end="none" stroke-miterlimit="159.36127744511"/>
         <g id="Group_5" fill-rule="nonzero" stroke-linejoin="round" stroke-width="0.288" fill="#24404c" stroke-miterlimit="159.36127744511">
          <g id="Group_6">
           <path d="M 112.239,2.295 L 112.239,7.272 L 112.912,7.272 L 115.309,3.474 L 115.329,3.481 L 115.329,7.272 L 116.003,7.272 L 116.003,2.295 L 115.329,2.295 L 112.933,6.096 L 112.912,6.089 L 112.912,2.295 L 112.239,2.295 Z" stroke-width="0" marker-start="none" marker-end="none" stroke-miterlimit="277.222222222222"/>
           <path d="M 117.189,2.733 C 116.891,3.072 116.743,3.519 116.743,4.072 L 116.743,4.223 C 116.743,4.754 116.896,5.193 117.202,5.541 C 117.509,5.888 117.883,6.062 118.325,6.062 C 118.82,6.062 119.191,5.908 119.438,5.6 C 119.685,5.293 119.809,4.884 119.809,4.373 L 119.809,4.018 L 117.443,4.018 L 117.433,4.001 C 117.433,3.629 117.515,3.328 117.679,3.097 C 117.843,2.865 118.094,2.75 118.431,2.75 C 118.659,2.75 118.859,2.782 119.031,2.847 C 119.203,2.912 119.351,3.001 119.474,3.115 L 119.737,2.678 C 119.605,2.55 119.43,2.443 119.214,2.355 C 118.997,2.267 118.737,2.223 118.431,2.223 C 117.9,2.223 117.486,2.393 117.189,2.733 Z M 119.135,4.548 L 119.135,4.602 C 119.135,4.871 119.069,5.093 118.937,5.269 C 118.805,5.444 118.601,5.532 118.325,5.532 C 118.091,5.532 117.896,5.441 117.742,5.26 C 117.589,5.079 117.495,4.847 117.46,4.565 L 117.467,4.548 L 119.135,4.548 Z" stroke-width="0" marker-start="none" marker-end="none" stroke-miterlimit="277.222222222222"/>
           <path d="M 121.126,2.295 L 120.053,5.993 L 120.754,5.993 L 121.335,3.642 L 121.42,3.167 L 121.441,3.167 L 121.53,3.642 L 122.268,5.993 L 122.808,5.993 L 123.55,3.642 L 123.645,3.112 L 123.666,3.112 L 123.775,3.642 L 124.322,5.993 L 125.026,5.993 L 123.953,2.295 L 123.409,2.295 L 122.678,4.548 L 122.538,5.136 L 122.517,5.136 L 122.387,4.548 L 121.67,2.295 L 121.126,2.295 Z" stroke-width="0" marker-start="none" marker-end="none" stroke-miterlimit="277.222222222222"/>
           <path d="M 127.573,2.471 C 127.411,2.636 127.33,2.895 127.33,3.249 L 127.33,5.494 L 126.742,5.494 L 126.742,5.993 L 127.33,5.993 L 127.33,6.886 L 128.003,6.886 L 128.003,5.993 L 128.704,5.993 L 128.704,5.494 L 128.003,5.494 L 128.003,3.249 C 128.003,3.076 128.039,2.954 128.111,2.883 C 128.183,2.812 128.278,2.777 128.396,2.777 C 128.435,2.777 128.479,2.782 128.526,2.792 C 128.574,2.803 128.614,2.813 128.646,2.825 L 128.738,2.363 C 128.688,2.322 128.614,2.289 128.516,2.263 C 128.418,2.236 128.321,2.223 128.226,2.223 C 127.952,2.223 127.734,2.306 127.573,2.471 Z" stroke-width="0" marker-start="none" marker-end="none" stroke-miterlimit="277.222222222222"/>
           <path d="M 129.249,2.295 L 129.249,5.993 L 129.85,5.993 L 129.915,5.453 C 130.02,5.645 130.149,5.794 130.303,5.901 C 130.457,6.008 130.634,6.062 130.835,6.062 C 130.885,6.062 130.933,6.058 130.978,6.05 C 131.024,6.042 131.062,6.033 131.091,6.024 L 130.999,5.399 L 130.654,5.419 C 130.476,5.419 130.326,5.377 130.204,5.293 C 130.082,5.208 129.988,5.09 129.922,4.937 L 129.922,2.295 L 129.249,2.295 Z" stroke-width="0" marker-start="none" marker-end="none" stroke-miterlimit="277.222222222222"/>
           <path d="M 131.7,2.519 C 131.498,2.716 131.397,2.988 131.397,3.334 C 131.397,3.687 131.54,3.964 131.826,4.163 C 132.112,4.362 132.5,4.462 132.99,4.462 L 133.722,4.462 L 133.722,4.828 C 133.722,5.044 133.656,5.216 133.523,5.342 C 133.391,5.469 133.204,5.532 132.963,5.532 C 132.744,5.532 132.568,5.477 132.433,5.368 C 132.299,5.259 132.231,5.128 132.231,4.975 L 131.592,4.968 L 131.585,4.989 C 131.569,5.257 131.695,5.504 131.963,5.727 C 132.231,5.95 132.577,6.062 133,6.062 C 133.42,6.062 133.757,5.955 134.012,5.742 C 134.267,5.529 134.395,5.222 134.395,4.821 L 134.395,3.04 C 134.395,2.908 134.402,2.78 134.416,2.657 C 134.429,2.534 134.454,2.414 134.491,2.295 L 133.797,2.295 C 133.774,2.407 133.756,2.505 133.744,2.591 C 133.731,2.676 133.724,2.762 133.722,2.849 C 133.596,2.671 133.433,2.522 133.231,2.403 C 133.029,2.283 132.812,2.223 132.58,2.223 C 132.195,2.223 131.902,2.322 131.7,2.519 Z M 133.339,2.975 C 133.535,3.101 133.663,3.244 133.722,3.406 L 133.722,4.007 L 132.966,4.007 C 132.695,4.007 132.478,3.939 132.315,3.802 C 132.152,3.666 132.071,3.505 132.071,3.32 C 132.071,3.156 132.122,3.027 132.224,2.931 C 132.327,2.835 132.479,2.787 132.679,2.787 C 132.923,2.787 133.143,2.85 133.339,2.975 Z" stroke-width="0" marker-start="none" marker-end="none" stroke-miterlimit="277.222222222222"/>
           <path d="M 135.426,2.714 C 135.171,3.041 135.043,3.471 135.043,4.004 L 135.043,4.076 C 135.043,4.671 135.17,5.15 135.424,5.515 C 135.678,5.88 136.034,6.062 136.492,6.062 C 136.709,6.062 136.901,6.022 137.068,5.942 C 137.236,5.863 137.379,5.746 137.497,5.594 L 137.497,7.627 L 138.171,7.627 L 138.171,2.295 L 137.655,2.295 L 137.552,2.763 C 137.431,2.586 137.282,2.451 137.104,2.36 C 136.926,2.269 136.72,2.223 136.485,2.223 C 136.034,2.223 135.681,2.387 135.426,2.714 Z M 137.162,2.907 C 137.299,2.998 137.411,3.126 137.497,3.29 L 137.497,5.016 C 137.411,5.169 137.298,5.29 137.161,5.38 C 137.023,5.47 136.857,5.515 136.663,5.515 C 136.34,5.515 136.101,5.382 135.947,5.115 C 135.793,4.848 135.716,4.502 135.716,4.076 L 135.716,4.004 C 135.716,3.63 135.793,3.331 135.945,3.107 C 136.098,2.882 136.335,2.77 136.656,2.77 C 136.857,2.77 137.026,2.816 137.162,2.907 Z" stroke-width="0" marker-start="none" marker-end="none" stroke-miterlimit="277.222222222222"/>
           <path d="M 139.055,2.295 L 139.055,5.993 L 139.728,5.993 L 139.728,2.295 L 139.055,2.295 Z M 139.055,6.94 L 139.055,7.627 L 139.728,7.627 L 139.728,6.94 L 139.055,6.94 Z" stroke-width="0" marker-start="none" marker-end="none" stroke-miterlimit="277.222222222222"/>
           <path d="M 140.588,2.295 L 140.588,5.993 L 141.189,5.993 L 141.237,5.443 C 141.36,5.639 141.515,5.791 141.7,5.899 C 141.886,6.008 142.098,6.062 142.334,6.062 C 142.733,6.062 143.042,5.945 143.261,5.712 C 143.48,5.478 143.589,5.117 143.589,4.63 L 143.589,2.295 L 142.916,2.295 L 142.916,4.616 C 142.916,4.942 142.851,5.173 142.722,5.31 C 142.594,5.447 142.397,5.515 142.133,5.515 C 141.926,5.515 141.749,5.473 141.605,5.39 C 141.46,5.307 141.345,5.19 141.261,5.04 L 141.261,2.295 L 140.588,2.295 Z" stroke-width="0" marker-start="none" marker-end="none" stroke-miterlimit="277.222222222222"/>
           <path d="M 145.22,0.875 C 145.014,0.924 144.832,0.99 144.674,1.075 L 144.777,1.598 C 144.907,1.529 145.064,1.474 145.247,1.432 C 145.43,1.39 145.611,1.369 145.789,1.369 C 146.117,1.369 146.356,1.443 146.505,1.593 C 146.654,1.742 146.729,1.969 146.729,2.274 L 146.729,2.695 C 146.608,2.54 146.463,2.423 146.295,2.343 C 146.126,2.263 145.931,2.223 145.71,2.223 C 145.259,2.223 144.906,2.387 144.652,2.714 C 144.398,3.041 144.271,3.471 144.271,4.004 L 144.271,4.076 C 144.271,4.671 144.398,5.15 144.652,5.515 C 144.906,5.88 145.261,6.062 145.717,6.062 C 145.952,6.062 146.158,6.015 146.336,5.92 C 146.514,5.825 146.663,5.689 146.784,5.512 L 146.866,5.993 L 147.402,5.993 L 147.402,2.274 C 147.402,1.8 147.264,1.436 146.989,1.182 C 146.713,0.928 146.315,0.801 145.796,0.801 C 145.618,0.801 145.426,0.826 145.22,0.875 Z M 146.39,2.909 C 146.527,3.001 146.64,3.131 146.729,3.3 L 146.729,5.002 C 146.642,5.159 146.529,5.284 146.39,5.376 C 146.251,5.469 146.084,5.515 145.888,5.515 C 145.567,5.515 145.329,5.382 145.175,5.115 C 145.021,4.848 144.944,4.502 144.945,4.076 L 144.945,4.004 C 144.944,3.633 145.021,3.334 145.174,3.109 C 145.326,2.883 145.562,2.77 145.881,2.77 C 146.084,2.77 146.254,2.816 146.39,2.909 Z" stroke-width="0" marker-start="none" marker-end="none" stroke-miterlimit="277.222222222222"/>
           <path d="M 150.04,2.733 C 149.742,3.072 149.594,3.519 149.594,4.072 L 149.594,4.223 C 149.594,4.754 149.747,5.193 150.053,5.541 C 150.36,5.888 150.734,6.062 151.176,6.062 C 151.671,6.062 152.042,5.908 152.289,5.6 C 152.536,5.293 152.66,4.884 152.66,4.373 L 152.66,4.018 L 150.294,4.018 L 150.284,4.001 C 150.284,3.629 150.366,3.328 150.53,3.097 C 150.694,2.865 150.945,2.75 151.282,2.75 C 151.51,2.75 151.71,2.782 151.882,2.847 C 152.054,2.912 152.202,3.001 152.325,3.115 L 152.588,2.678 C 152.456,2.55 152.281,2.443 152.065,2.355 C 151.848,2.267 151.588,2.223 151.282,2.223 C 150.751,2.223 150.337,2.393 150.04,2.733 Z M 151.986,4.548 L 151.986,4.602 C 151.986,4.871 151.92,5.093 151.788,5.269 C 151.656,5.444 151.452,5.532 151.176,5.532 C 150.942,5.532 150.747,5.441 150.593,5.26 C 150.44,5.079 150.346,4.847 150.311,4.565 L 150.318,4.548 L 151.986,4.548 Z" stroke-width="0" marker-start="none" marker-end="none" stroke-miterlimit="277.222222222222"/>
           <path d="M 153.239,2.295 L 153.239,5.993 L 153.84,5.993 L 153.905,5.453 C 154.01,5.645 154.139,5.794 154.293,5.901 C 154.447,6.008 154.624,6.062 154.825,6.062 C 154.875,6.062 154.923,6.058 154.968,6.05 C 155.014,6.042 155.052,6.033 155.081,6.024 L 154.989,5.399 L 154.644,5.419 C 154.466,5.419 154.316,5.377 154.194,5.293 C 154.072,5.208 153.978,5.09 153.912,4.937 L 153.912,2.295 L 153.239,2.295 Z" stroke-width="0" marker-start="none" marker-end="none" stroke-miterlimit="277.222222222222"/>
           <path d="M 155.69,2.519 C 155.488,2.716 155.387,2.988 155.387,3.334 C 155.387,3.687 155.53,3.964 155.816,4.163 C 156.102,4.362 156.49,4.462 156.98,4.462 L 157.712,4.462 L 157.712,4.828 C 157.712,5.044 157.646,5.216 157.513,5.342 C 157.381,5.469 157.194,5.532 156.953,5.532 C 156.734,5.532 156.558,5.477 156.423,5.368 C 156.289,5.259 156.221,5.128 156.221,4.975 L 155.582,4.968 L 155.575,4.989 C 155.559,5.257 155.685,5.504 155.953,5.727 C 156.221,5.95 156.567,6.062 156.99,6.062 C 157.41,6.062 157.747,5.955 158.002,5.742 C 158.257,5.529 158.385,5.222 158.385,4.821 L 158.385,3.04 C 158.385,2.908 158.392,2.78 158.406,2.657 C 158.419,2.534 158.444,2.414 158.481,2.295 L 157.787,2.295 C 157.764,2.407 157.746,2.505 157.734,2.591 C 157.721,2.676 157.714,2.762 157.712,2.849 C 157.586,2.671 157.423,2.522 157.221,2.403 C 157.019,2.283 156.802,2.223 156.57,2.223 C 156.185,2.223 155.892,2.322 155.69,2.519 Z M 157.329,2.975 C 157.525,3.101 157.653,3.244 157.712,3.406 L 157.712,4.007 L 156.956,4.007 C 156.685,4.007 156.468,3.939 156.305,3.802 C 156.142,3.666 156.061,3.505 156.061,3.32 C 156.061,3.156 156.112,3.027 156.214,2.931 C 156.317,2.835 156.469,2.787 156.669,2.787 C 156.913,2.787 157.133,2.85 157.329,2.975 Z" stroke-width="0" marker-start="none" marker-end="none" stroke-miterlimit="277.222222222222"/>
          </g>
         </g>
         <path d="M 77.461,9.938 C 76.474,10.356 75.608,10.938 74.864,11.682 C 74.119,12.426 73.538,13.291 73.119,14.277 C 72.701,15.264 72.489,16.327 72.482,17.471 L 72.483,17.471 L 72.482,17.472 L 72.482,28.988 L 75.353,28.988 L 75.353,25.062 L 80.975,25.062 L 80.975,22.319 L 75.353,22.319 L 75.353,17.472 L 75.349,17.467 C 75.356,16.392 75.655,15.451 76.097,14.64 C 76.538,13.828 77.15,13.195 77.933,12.739 C 78.715,12.284 79.623,12.052 80.655,12.044 C 80.763,12.044 80.869,12.048 80.975,12.054 L 80.975,9.307 C 80.869,9.303 80.762,9.3 80.655,9.3 C 79.512,9.308 78.447,9.52 77.461,9.938 Z" fill-rule="nonzero" stroke-linejoin="round" fill="#73c02c" stroke-width="0" marker-start="none" marker-end="none" stroke-miterlimit="159.36127744511"/>
         <path d="M 119.588,9.938 C 118.601,10.356 117.735,10.938 116.991,11.682 C 116.246,12.426 115.665,13.291 115.246,14.277 C 114.828,15.264 114.616,16.327 114.609,17.471 L 114.61,17.471 L 114.609,17.472 L 114.609,28.988 L 117.48,28.988 L 117.48,25.062 L 123.102,25.062 L 123.102,22.319 L 117.48,22.319 L 117.48,17.472 L 117.476,17.467 C 117.483,16.392 117.782,15.451 118.224,14.64 C 118.665,13.828 119.277,13.195 120.06,12.739 C 120.842,12.284 121.75,12.052 122.782,12.044 C 122.89,12.044 122.996,12.048 123.102,12.054 L 123.102,9.307 C 122.996,9.303 122.889,9.3 122.782,9.3 C 121.639,9.308 120.574,9.52 119.588,9.938 Z" fill-rule="nonzero" stroke-linejoin="round" fill="#24404c" stroke-width="0" marker-start="none" marker-end="none" stroke-miterlimit="159.36127744511"/>
        </g>
       </g>
      </g>
     </g>
    </g>
   </g>
  </g>
 </g>
</svg>
