<?xml version="1.0" standalone="no"?>
<!DOCTYPE svg PUBLIC "-//W3C//DTD SVG 1.1//EN" "http://www.w3.org/Graphics/SVG/1.1/DTD/svg11.dtd">
<!--Generator: Xara Designer (www.xara.com), SVG filter version: 5.0.0.2-->
<svg stroke-width="0.501" stroke-linejoin="bevel" fill-rule="evenodd" xmlns:xlink="http://www.w3.org/1999/xlink" xmlns="http://www.w3.org/2000/svg" version="1.1" overflow="visible" width="159pt" height="36pt" viewBox="0 0 159 36">
 <defs>
  <marker id="DefaultArrow2" markerUnits="strokeWidth" viewBox="0 0 1 1" markerWidth="1" markerHeight="1" overflow="visible" orient="auto">
   <!-- REF_ARROW_STRAIGHT (-2) -->
   <g transform="scale(0.0092592592)">
    <!-- 1/108 -->
    <path d="M -9 54 L -9 -54 L 117 0 z"/>
   </g>
  </marker>
  <marker id="DefaultArrow3" markerUnits="strokeWidth" viewBox="0 0 1 1" markerWidth="1" markerHeight="1" overflow="visible" orient="auto">
   <!-- REF_ARROW_ANGLED -->
   <g transform="scale(0.0092592592)">
    <path d="M -27 54 L -9 0 L -27 -54 L 135 0 z"/>
   </g>
  </marker>
  <marker id="DefaultArrow4" markerUnits="strokeWidth" viewBox="0 0 1 1" markerWidth="1" markerHeight="1" overflow="visible" orient="auto">
   <!-- REF_ARROW_ROUNDED -->
   <g transform="scale(0.0092592592)">
    <path d="M -9,0 L -9,-45 C -9,-51.708 2.808,-56.580 9,-54 L 117,-9 C 120.916,-7.369 126.000,-4.242 126,0 C 126,4.242 120.916,7.369 117,9 L 9,54 C 2.808,56.580 -9,51.708 -9,45 z"/>
   </g>
  </marker>
  <marker id="DefaultArrow5" markerUnits="strokeWidth" viewBox="0 0 1 1" markerWidth="1" markerHeight="1" overflow="visible" orient="auto">
   <!-- REF_ARROW_SPOT -->
   <g transform="scale(0.0092592592)">
    <path d="M -54, 0 C -54,29.807 -29.807,54 0,54 C 29.807,54 54,29.807 54,0 C 54,-29.807 29.807,-54 0,-54 C -29.807,-54 -54,-29.807 -54,0 z"/>
   </g>
  </marker>
  <marker id="DefaultArrow6" markerUnits="strokeWidth" viewBox="0 0 1 1" markerWidth="1" markerHeight="1" overflow="visible" orient="auto">
   <!-- REF_ARROW_DIAMOND -->
   <g transform="scale(0.0092592592)">
    <path d="M -63,0 L 0,63 L 63,0 L 0,-63 z"/>
   </g>
  </marker>
  <marker id="DefaultArrow7" markerUnits="strokeWidth" viewBox="0 0 1 1" markerWidth="1" markerHeight="1" overflow="visible" orient="auto">
   <!-- REF_ARROW_FEATHER -->
   <g transform="scale(0.0092592592)">
    <path d="M 18,-54 L 108,-54 L 63,0 L 108,54 L 18, 54 L -36,0 z"/>
   </g>
  </marker>
  <marker id="DefaultArrow8" markerUnits="strokeWidth" viewBox="0 0 1 1" markerWidth="1" markerHeight="1" overflow="visible" orient="auto">
   <!-- REF_ARROW_FEATHER2 -->
   <g transform="scale(0.0092592592)">
    <path d="M -36,0 L 18,-54 L 54,-54 L 18,-18 L 27,-18 L 63,-54 L 99,-54 L 63,-18 L 72,-18 L 108,-54 L 144,-54 L 90,0 L 144,54 L 108,54 L 72,18 L 63,18 L 99,54 L 63,54 L 27,18 L 18,18 L 54,54 L 18,54 z"/>
   </g>
  </marker>
  <marker id="DefaultArrow9" markerUnits="strokeWidth" viewBox="0 0 1 1" markerWidth="1" markerHeight="1" overflow="visible" orient="auto">
   <!-- REF_ARROW_HOLLOWDIAMOND -->
   <g transform="scale(0.0092592592)">
    <path d="M 0,45 L -45,0 L 0, -45 L 45, 0 z M 0, 63 L-63, 0 L 0, -63 L 63, 0 z"/>
   </g>
  </marker>
  <filter id="StainedFilter">
   <feBlend mode="multiply" in2="BackgroundImage" in="SourceGraphic" result="blend"/>
   <feComposite in="blend" in2="SourceAlpha" operator="in" result="comp"/>
  </filter>
  <filter id="BleachFilter">
   <feBlend mode="screen" in2="BackgroundImage" in="SourceGraphic" result="blend"/>
   <feComposite in="blend" in2="SourceAlpha" operator="in" result="comp"/>
  </filter>
  <filter id="InvertTransparencyBitmapFilter">
   <feComponentTransfer>
    <feFuncR type="gamma" amplitude="1.055" exponent=".416666666" offset="-0.055"/>
    <feFuncG type="gamma" amplitude="1.055" exponent=".416666666" offset="-0.055"/>
    <feFuncB type="gamma" amplitude="1.055" exponent=".416666666" offset="-0.055"/>
   </feComponentTransfer>
   <feComponentTransfer>
    <feFuncR type="linear" slope="-1" intercept="1"/>
    <feFuncG type="linear" slope="-1" intercept="1"/>
    <feFuncB type="linear" slope="-1" intercept="1"/>
    <feFuncA type="linear" slope="1" intercept="0"/>
   </feComponentTransfer>
   <feComponentTransfer>
    <feFuncR type="gamma" amplitude="1" exponent="2.4" offset="0"/>
    <feFuncG type="gamma" amplitude="1" exponent="2.4" offset="0"/>
    <feFuncB type="gamma" amplitude="1" exponent="2.4" offset="0"/>
   </feComponentTransfer>
  </filter>
 </defs>
 <g id="Document" fill="none" stroke="black" font-family="Times New Roman" font-size="16" transform="scale(1 -1)">
  <g id="Spread" transform="translate(0 -36)">
   <g id="Layer 1">
    <g id="Group" stroke="none">
     <path d="M 0,36 L 159,36 L 159,0 L 0,0 L 0,36"/>
     <g id="Group_1" stroke-linecap="round" stroke-miterlimit="79.8403193612775">
      <g id="Group_2">
       <g id="Group_3">
        <g id="Group_4">
         <path d="M 42.922,9.777 C 41.892,10.251 41.029,10.886 40.334,11.684 C 39.638,12.482 39.114,13.373 38.763,14.357 C 38.41,15.342 38.234,16.35 38.234,17.383 C 38.238,18.446 38.414,19.437 38.761,20.358 C 39.108,21.278 39.599,22.095 40.233,22.809 C 40.867,23.522 41.617,24.1 42.483,24.54 C 43.093,24.848 43.736,25.066 44.411,25.198 C 45.087,25.329 45.762,25.393 46.437,25.39 C 46.937,25.396 47.548,25.317 48.268,25.153 C 48.988,24.988 49.762,24.697 50.588,24.279 L 50.588,21.273 C 50.292,21.475 49.934,21.681 49.515,21.89 C 49.096,22.1 48.631,22.277 48.121,22.421 C 47.612,22.565 47.072,22.64 46.503,22.646 C 45.992,22.647 45.485,22.587 44.983,22.466 C 44.481,22.345 44.007,22.154 43.561,21.894 C 43.131,21.631 42.736,21.281 42.376,20.843 C 42.017,20.405 41.728,19.885 41.511,19.284 C 41.293,18.683 41.181,18.005 41.175,17.252 C 41.184,16.187 41.417,15.245 41.876,14.428 C 42.335,13.61 42.968,12.969 43.776,12.504 C 44.583,12.039 45.514,11.802 46.568,11.793 C 46.979,11.792 47.384,11.836 47.782,11.924 C 48.18,12.013 48.56,12.154 48.922,12.349 C 49.593,12.726 50.123,13.181 50.51,13.714 C 50.898,14.246 51.181,14.8 51.361,15.373 C 51.54,15.946 51.654,16.483 51.702,16.983 C 51.751,17.483 51.772,17.889 51.765,18.2 L 51.765,32.251 L 54.636,32.251 L 54.636,18.2 C 54.628,16.379 54.293,14.785 53.632,13.416 C 52.971,12.048 52.033,10.981 50.82,10.216 C 49.607,9.451 48.167,9.062 46.503,9.049 C 45.146,9.061 43.952,9.304 42.922,9.777 Z" fill-rule="nonzero" stroke-linejoin="round" fill="#73c02c" stroke-width="0" marker-start="none" marker-end="none" stroke-miterlimit="159.36127744511"/>
         <path d="M 60.365,9.688 C 59.378,10.106 58.512,10.688 57.768,11.432 C 57.023,12.176 56.442,13.041 56.023,14.027 C 55.605,15.014 55.393,16.077 55.386,17.221 C 55.393,18.364 55.605,19.428 56.023,20.414 C 56.442,21.4 57.023,22.265 57.768,23.009 C 58.512,23.754 59.378,24.335 60.365,24.753 C 61.351,25.171 62.416,25.383 63.559,25.391 C 64.702,25.383 65.767,25.171 66.754,24.753 C 67.74,24.335 68.606,23.754 69.35,23.009 C 70.095,22.265 70.676,21.4 71.094,20.414 C 71.513,19.428 71.725,18.364 71.732,17.221 C 71.725,16.077 71.513,15.014 71.094,14.027 C 70.676,13.041 70.095,12.176 69.35,11.432 C 68.606,10.688 67.74,10.106 66.754,9.688 C 65.767,9.27 64.702,9.058 63.559,9.05 C 62.416,9.058 61.351,9.27 60.365,9.688 Z M 66.296,12.497 C 67.078,12.956 67.688,13.592 68.124,14.404 C 68.562,15.217 68.784,16.156 68.79,17.221 C 68.784,18.286 68.562,19.225 68.124,20.037 C 67.688,20.849 67.078,21.485 66.296,21.945 C 65.514,22.405 64.601,22.639 63.559,22.647 C 62.527,22.639 61.619,22.407 60.837,21.952 C 60.054,21.496 59.442,20.863 59.001,20.051 C 58.559,19.24 58.335,18.296 58.328,17.221 C 58.335,16.145 58.559,15.202 59.001,14.39 C 59.442,13.578 60.054,12.945 60.837,12.489 C 61.619,12.034 62.527,11.802 63.559,11.794 C 64.601,11.803 65.514,12.037 66.296,12.497 Z" fill-rule="nonzero" stroke-linejoin="round" fill="#73c02c" stroke-width="0" marker-start="none" marker-end="none" stroke-miterlimit="159.36127744511"/>
         <path d="M 85.204,9.688 C 84.217,10.106 83.351,10.688 82.607,11.432 C 81.862,12.176 81.281,13.041 80.862,14.027 C 80.444,15.014 80.232,16.077 80.225,17.221 C 80.232,18.364 80.444,19.428 80.862,20.414 C 81.281,21.4 81.862,22.265 82.607,23.009 C 83.351,23.754 84.217,24.335 85.204,24.753 C 86.19,25.171 87.255,25.383 88.398,25.391 C 89.541,25.383 90.606,25.171 91.593,24.753 C 92.579,24.335 93.445,23.754 94.189,23.009 C 94.934,22.265 95.515,21.4 95.933,20.414 C 96.352,19.428 96.564,18.364 96.571,17.221 C 96.564,16.077 96.352,15.014 95.933,14.027 C 95.515,13.041 94.934,12.176 94.189,11.432 C 93.445,10.688 92.579,10.106 91.593,9.688 C 90.606,9.27 89.541,9.058 88.398,9.05 C 87.255,9.058 86.19,9.27 85.204,9.688 Z M 91.135,12.497 C 91.917,12.956 92.527,13.592 92.963,14.404 C 93.401,15.217 93.623,16.156 93.629,17.221 C 93.623,18.286 93.401,19.225 92.963,20.037 C 92.527,20.849 91.917,21.485 91.135,21.945 C 90.353,22.405 89.441,22.639 88.398,22.647 C 87.366,22.639 86.458,22.407 85.676,21.952 C 84.893,21.496 84.281,20.863 83.84,20.051 C 83.398,19.24 83.174,18.296 83.167,17.221 C 83.174,16.145 83.398,15.202 83.84,14.39 C 84.281,13.578 84.893,12.945 85.676,12.489 C 86.458,12.034 87.366,11.802 88.398,11.794 C 89.441,11.803 90.353,12.037 91.135,12.497 Z" fill-rule="nonzero" stroke-linejoin="round" fill="#ffffff" stroke-width="0" marker-start="none" marker-end="none" stroke-miterlimit="159.36127744511"/>
         <path d="M 97.321,2.252 L 97.321,16.174 C 97.328,17.634 97.497,18.89 97.828,19.944 C 98.159,20.997 98.607,21.876 99.172,22.581 C 99.737,23.285 100.373,23.843 101.082,24.254 C 101.79,24.666 102.525,24.959 103.288,25.134 C 104.051,25.309 104.795,25.394 105.522,25.39 C 106.627,25.386 107.677,25.189 108.674,24.799 C 109.67,24.409 110.557,23.848 111.334,23.115 C 112.112,22.382 112.725,21.5 113.173,20.468 C 113.621,19.437 113.85,18.278 113.859,16.991 C 113.849,15.723 113.618,14.596 113.168,13.613 C 112.716,12.629 112.107,11.798 111.338,11.12 C 110.57,10.443 109.705,9.928 108.743,9.578 C 107.78,9.227 106.783,9.051 105.751,9.049 C 104.97,9.049 104.194,9.173 103.426,9.421 C 102.656,9.67 101.971,10.047 101.369,10.552 L 101.369,13.559 C 102.07,12.899 102.753,12.437 103.417,12.173 C 104.081,11.91 104.74,11.783 105.391,11.793 C 106.499,11.801 107.466,12.025 108.292,12.468 C 109.118,12.91 109.76,13.524 110.219,14.312 C 110.678,15.099 110.911,16.014 110.918,17.056 C 110.906,18.186 110.661,19.167 110.181,20.002 C 109.702,20.837 109.06,21.485 108.253,21.945 C 107.447,22.406 106.548,22.639 105.555,22.646 C 104.965,22.654 104.359,22.564 103.737,22.376 C 103.116,22.187 102.538,21.851 102.003,21.367 C 101.468,20.883 101.035,20.201 100.704,19.323 C 100.372,18.444 100.202,17.318 100.192,15.945 L 100.192,2.252 L 97.321,2.252 Z" fill-rule="nonzero" stroke-linejoin="round" fill="#ffffff" stroke-width="0" marker-start="none" marker-end="none" stroke-miterlimit="159.36127744511"/>
         <path d="M 124.147,9.378 L 124.147,25.063 L 127.018,25.063 L 127.018,9.378 L 124.147,9.378 Z M 124.568,27.117 C 124.313,27.302 124.13,27.526 124.017,27.791 C 123.905,28.055 123.85,28.311 123.852,28.559 C 123.85,28.806 123.905,29.062 124.017,29.327 C 124.13,29.592 124.313,29.816 124.568,30.001 C 124.822,30.185 125.16,30.282 125.583,30.29 C 126.005,30.282 126.343,30.185 126.598,30.001 C 126.852,29.816 127.035,29.592 127.148,29.327 C 127.261,29.062 127.316,28.806 127.314,28.559 C 127.316,28.311 127.261,28.055 127.148,27.791 C 127.035,27.526 126.852,27.302 126.598,27.117 C 126.343,26.932 126.005,26.836 125.583,26.828 C 125.16,26.836 124.822,26.932 124.568,27.117 Z" fill-rule="nonzero" stroke-linejoin="round" fill="#ffffff" stroke-width="0" marker-start="none" marker-end="none" stroke-miterlimit="159.36127744511"/>
         <path d="M 132.747,9.688 C 131.76,10.106 130.894,10.688 130.149,11.432 C 129.405,12.176 128.824,13.041 128.405,14.027 C 127.987,15.014 127.775,16.077 127.768,17.221 C 127.775,18.364 127.987,19.428 128.405,20.414 C 128.824,21.4 129.405,22.265 130.149,23.009 C 130.894,23.754 131.76,24.335 132.747,24.753 C 133.733,25.171 134.798,25.383 135.941,25.391 C 137.084,25.383 138.149,25.171 139.136,24.753 C 140.122,24.335 140.988,23.754 141.732,23.009 C 142.477,22.265 143.058,21.4 143.476,20.414 C 143.895,19.428 144.107,18.364 144.114,17.221 C 144.107,16.077 143.895,15.014 143.476,14.027 C 143.058,13.041 142.477,12.176 141.732,11.432 C 140.988,10.688 140.122,10.106 139.136,9.688 C 138.149,9.27 137.084,9.058 135.941,9.05 C 134.798,9.058 133.733,9.27 132.747,9.688 Z M 138.678,12.497 C 139.46,12.956 140.07,13.592 140.506,14.404 C 140.944,15.217 141.166,16.156 141.172,17.221 C 141.166,18.286 140.944,19.225 140.506,20.037 C 140.07,20.849 139.46,21.485 138.678,21.945 C 137.896,22.405 136.984,22.639 135.941,22.647 C 134.909,22.639 134.001,22.407 133.219,21.952 C 132.436,21.496 131.824,20.863 131.383,20.051 C 130.94,19.24 130.716,18.296 130.71,17.221 C 130.716,16.145 130.94,15.202 131.383,14.39 C 131.824,13.578 132.436,12.945 133.219,12.489 C 134.001,12.034 134.909,11.802 135.941,11.794 C 136.984,11.803 137.896,12.037 138.678,12.497 Z" fill-rule="nonzero" stroke-linejoin="round" fill="#ffffff" stroke-width="0" marker-start="none" marker-end="none" stroke-miterlimit="159.36127744511"/>
         <path d="M 144.866,9.378 L 144.866,17.777 C 144.853,18.527 144.918,19.307 145.061,20.116 C 145.203,20.925 145.497,21.704 145.944,22.454 C 146.39,23.205 147.065,23.868 147.966,24.443 C 148.508,24.769 149.084,25.008 149.691,25.162 C 150.299,25.316 150.923,25.392 151.564,25.391 C 152.204,25.392 152.828,25.316 153.436,25.162 C 154.044,25.008 154.619,24.769 155.161,24.443 C 156.063,23.868 156.737,23.205 157.183,22.454 C 157.63,21.704 157.925,20.925 158.067,20.116 C 158.209,19.307 158.274,18.527 158.261,17.777 L 158.261,9.378 L 155.39,9.378 L 155.39,17.777 C 155.401,18.223 155.368,18.721 155.291,19.271 C 155.213,19.82 155.025,20.357 154.726,20.881 C 154.427,21.405 153.951,21.851 153.297,22.222 C 153.033,22.368 152.752,22.476 152.455,22.545 C 152.158,22.613 151.861,22.647 151.564,22.647 C 151.266,22.647 150.969,22.613 150.672,22.545 C 150.375,22.476 150.094,22.368 149.83,22.222 C 149.176,21.851 148.7,21.405 148.401,20.881 C 148.102,20.357 147.914,19.82 147.837,19.271 C 147.759,18.721 147.726,18.223 147.737,17.777 L 147.737,9.378 L 144.866,9.378 Z" fill-rule="nonzero" stroke-linejoin="round" fill="#ffffff" stroke-width="0" marker-start="none" marker-end="none" stroke-miterlimit="159.36127744511"/>
         <path d="M 11.986,7.909 L 11.986,28.092 C 11.986,29.145 12.842,30.001 13.895,30.001 L 17.576,30.001 C 18.629,30.001 19.485,29.145 19.485,28.092 L 19.485,7.909 C 19.485,6.856 18.629,6 17.576,6 L 13.895,6 C 12.842,6 11.986,6.856 11.986,7.909 Z" stroke-linejoin="miter" fill="#ffffff" stroke-width="0" marker-start="none" marker-end="none" stroke-miterlimit="159.36127744511"/>
         <path d="M 14.985,1.5 L 14.985,4.5 L 16.486,4.5 L 16.486,1.5 C 16.486,1.087 16.15,0.751 15.736,0.751 L 15.735,0.751 C 15.321,0.751 14.985,1.087 14.985,1.5 Z M 14.985,31.501 L 14.985,34.5 C 14.985,34.914 15.321,35.25 15.735,35.25 L 15.736,35.25 C 16.15,35.25 16.486,34.914 16.486,34.5 L 16.486,31.501 L 14.985,31.501 Z" stroke-linejoin="miter" fill="#ffffff" stroke-width="0" marker-start="none" marker-end="none" stroke-miterlimit="159.36127744511"/>
         <path d="M 23.235,16.909 L 23.235,28.092 C 23.235,29.145 24.091,30.001 25.144,30.001 L 28.825,30.001 C 29.878,30.001 30.734,29.145 30.734,28.092 L 30.734,16.909 C 30.734,15.856 29.878,15 28.825,15 L 25.144,15 C 24.091,15 23.235,15.856 23.235,16.909 Z" stroke-linejoin="miter" fill="#ffffff" stroke-width="0" marker-start="none" marker-end="none" stroke-miterlimit="159.36127744511"/>
         <path d="M 26.234,6.751 L 26.234,13.5 L 27.735,13.5 L 27.735,6.751 C 27.735,6.337 27.399,6.001 26.985,6.001 L 26.984,6.001 C 26.57,6.001 26.234,6.337 26.234,6.751 Z M 26.234,31.501 L 26.234,34.5 C 26.234,34.914 26.57,35.25 26.984,35.25 L 26.985,35.25 C 27.399,35.25 27.735,34.914 27.735,34.5 L 27.735,31.501 L 26.234,31.501 Z" stroke-linejoin="miter" fill="#ffffff" stroke-width="0" marker-start="none" marker-end="none" stroke-miterlimit="159.36127744511"/>
         <path d="M 0.737,7.91 L 0.737,19.093 C 0.737,20.146 1.593,21.002 2.646,21.002 L 6.327,21.002 C 7.38,21.002 8.236,20.146 8.236,19.093 L 8.236,7.91 C 8.236,6.857 7.38,6.001 6.327,6.001 L 2.646,6.001 C 1.593,6.001 0.737,6.857 0.737,7.91 Z" stroke-linejoin="miter" fill="#ffffff" stroke-width="0" marker-start="none" marker-end="none" stroke-miterlimit="159.36127744511"/>
         <path d="M 3.736,1.502 L 3.736,4.501 L 5.237,4.501 L 5.237,1.502 C 5.237,1.088 4.901,0.752 4.487,0.752 L 4.486,0.752 C 4.072,0.752 3.736,1.088 3.736,1.502 Z M 3.736,22.502 L 3.736,29.251 C 3.736,29.665 4.072,30.001 4.486,30.001 L 4.487,30.001 C 4.901,30.001 5.237,29.665 5.237,29.251 L 5.237,22.502 L 3.736,22.502 Z" stroke-linejoin="miter" fill="#ffffff" stroke-width="0" marker-start="none" marker-end="none" stroke-miterlimit="159.36127744511"/>
         <path d="M 77.461,9.939 C 76.474,10.357 75.608,10.939 74.864,11.683 C 74.119,12.427 73.538,13.292 73.119,14.278 C 72.701,15.265 72.489,16.329 72.482,17.472 L 72.483,17.472 L 72.482,17.473 L 72.482,28.989 L 75.353,28.989 L 75.353,25.063 L 80.975,25.063 L 80.975,22.32 L 75.353,22.32 L 75.353,17.473 L 75.349,17.468 C 75.356,16.393 75.655,15.452 76.097,14.641 C 76.538,13.829 77.15,13.196 77.933,12.74 C 78.715,12.285 79.623,12.053 80.655,12.045 C 80.763,12.045 80.869,12.049 80.975,12.055 L 80.975,9.308 C 80.869,9.304 80.762,9.301 80.655,9.301 C 79.512,9.309 78.447,9.521 77.461,9.939 Z" fill-rule="nonzero" stroke-linejoin="round" fill="#73c02c" stroke-width="0" marker-start="none" marker-end="none" stroke-miterlimit="159.36127744511"/>
         <path d="M 119.588,9.939 C 118.601,10.357 117.735,10.939 116.991,11.683 C 116.246,12.427 115.665,13.292 115.246,14.278 C 114.828,15.265 114.616,16.329 114.609,17.472 L 114.61,17.472 L 114.609,17.473 L 114.609,28.989 L 117.48,28.989 L 117.48,25.063 L 123.102,25.063 L 123.102,22.32 L 117.48,22.32 L 117.48,17.473 L 117.476,17.468 C 117.483,16.393 117.782,15.452 118.224,14.641 C 118.665,13.829 119.277,13.196 120.06,12.74 C 120.842,12.285 121.75,12.053 122.782,12.045 C 122.89,12.045 122.996,12.049 123.102,12.055 L 123.102,9.308 C 122.996,9.304 122.889,9.301 122.782,9.301 C 121.639,9.309 120.574,9.521 119.588,9.939 Z" fill-rule="nonzero" stroke-linejoin="round" fill="#ffffff" stroke-width="0" marker-start="none" marker-end="none" stroke-miterlimit="159.36127744511"/>
         <g id="Group_5" fill-rule="nonzero" stroke-linejoin="round" stroke-width="0.288" fill="#ffffff" stroke-miterlimit="159.36127744511">
          <g id="Group_6">
           <path d="M 112.239,2.291 L 112.239,7.268 L 112.912,7.268 L 115.309,3.47 L 115.329,3.477 L 115.329,7.268 L 116.003,7.268 L 116.003,2.291 L 115.329,2.291 L 112.933,6.092 L 112.912,6.085 L 112.912,2.291 L 112.239,2.291 Z" stroke-width="0" marker-start="none" marker-end="none" stroke-miterlimit="277.222222222222"/>
           <path d="M 117.189,2.729 C 116.891,3.068 116.743,3.515 116.743,4.068 L 116.743,4.219 C 116.743,4.75 116.896,5.189 117.202,5.537 C 117.509,5.884 117.883,6.058 118.325,6.058 C 118.82,6.058 119.191,5.904 119.438,5.596 C 119.685,5.289 119.809,4.88 119.809,4.369 L 119.809,4.014 L 117.443,4.014 L 117.433,3.997 C 117.433,3.625 117.515,3.324 117.679,3.093 C 117.843,2.861 118.094,2.746 118.431,2.746 C 118.659,2.746 118.859,2.778 119.031,2.843 C 119.203,2.908 119.351,2.997 119.474,3.111 L 119.737,2.674 C 119.605,2.546 119.43,2.439 119.214,2.351 C 118.997,2.263 118.737,2.219 118.431,2.219 C 117.9,2.219 117.486,2.389 117.189,2.729 Z M 119.135,4.544 L 119.135,4.598 C 119.135,4.867 119.069,5.089 118.937,5.265 C 118.805,5.44 118.601,5.528 118.325,5.528 C 118.091,5.528 117.896,5.437 117.742,5.256 C 117.589,5.075 117.495,4.843 117.46,4.561 L 117.467,4.544 L 119.135,4.544 Z" stroke-width="0" marker-start="none" marker-end="none" stroke-miterlimit="277.222222222222"/>
           <path d="M 121.126,2.291 L 120.053,5.989 L 120.754,5.989 L 121.335,3.638 L 121.42,3.163 L 121.441,3.163 L 121.53,3.638 L 122.268,5.989 L 122.808,5.989 L 123.55,3.638 L 123.645,3.108 L 123.666,3.108 L 123.775,3.638 L 124.322,5.989 L 125.026,5.989 L 123.953,2.291 L 123.409,2.291 L 122.678,4.544 L 122.538,5.132 L 122.517,5.132 L 122.387,4.544 L 121.67,2.291 L 121.126,2.291 Z" stroke-width="0" marker-start="none" marker-end="none" stroke-miterlimit="277.222222222222"/>
           <path d="M 127.573,2.467 C 127.411,2.632 127.33,2.891 127.33,3.245 L 127.33,5.49 L 126.742,5.49 L 126.742,5.989 L 127.33,5.989 L 127.33,6.882 L 128.003,6.882 L 128.003,5.989 L 128.704,5.989 L 128.704,5.49 L 128.003,5.49 L 128.003,3.245 C 128.003,3.072 128.039,2.95 128.111,2.879 C 128.183,2.808 128.278,2.773 128.396,2.773 C 128.435,2.773 128.479,2.778 128.526,2.788 C 128.574,2.799 128.614,2.809 128.646,2.821 L 128.738,2.359 C 128.688,2.318 128.614,2.285 128.516,2.259 C 128.418,2.232 128.321,2.219 128.226,2.219 C 127.952,2.219 127.734,2.302 127.573,2.467 Z" stroke-width="0" marker-start="none" marker-end="none" stroke-miterlimit="277.222222222222"/>
           <path d="M 129.249,2.291 L 129.249,5.989 L 129.85,5.989 L 129.915,5.449 C 130.02,5.641 130.149,5.79 130.303,5.897 C 130.457,6.004 130.634,6.058 130.835,6.058 C 130.885,6.058 130.933,6.054 130.978,6.046 C 131.024,6.038 131.062,6.029 131.091,6.02 L 130.999,5.395 L 130.654,5.415 C 130.476,5.415 130.326,5.373 130.204,5.289 C 130.082,5.204 129.988,5.086 129.922,4.933 L 129.922,2.291 L 129.249,2.291 Z" stroke-width="0" marker-start="none" marker-end="none" stroke-miterlimit="277.222222222222"/>
           <path d="M 131.7,2.515 C 131.498,2.712 131.397,2.984 131.397,3.33 C 131.397,3.683 131.54,3.96 131.826,4.159 C 132.112,4.358 132.5,4.458 132.99,4.458 L 133.722,4.458 L 133.722,4.824 C 133.722,5.04 133.656,5.212 133.523,5.338 C 133.391,5.465 133.204,5.528 132.963,5.528 C 132.744,5.528 132.568,5.473 132.433,5.364 C 132.299,5.255 132.231,5.124 132.231,4.971 L 131.592,4.964 L 131.585,4.985 C 131.569,5.253 131.695,5.5 131.963,5.723 C 132.231,5.946 132.577,6.058 133,6.058 C 133.42,6.058 133.757,5.951 134.012,5.738 C 134.267,5.525 134.395,5.218 134.395,4.817 L 134.395,3.036 C 134.395,2.904 134.402,2.776 134.416,2.653 C 134.429,2.53 134.454,2.41 134.491,2.291 L 133.797,2.291 C 133.774,2.403 133.756,2.501 133.744,2.587 C 133.731,2.672 133.724,2.758 133.722,2.845 C 133.596,2.667 133.433,2.518 133.231,2.399 C 133.029,2.279 132.812,2.219 132.58,2.219 C 132.195,2.219 131.902,2.318 131.7,2.515 Z M 133.339,2.971 C 133.535,3.097 133.663,3.24 133.722,3.402 L 133.722,4.003 L 132.966,4.003 C 132.695,4.003 132.478,3.935 132.315,3.798 C 132.152,3.662 132.071,3.501 132.071,3.316 C 132.071,3.152 132.122,3.023 132.224,2.927 C 132.327,2.831 132.479,2.783 132.679,2.783 C 132.923,2.783 133.143,2.846 133.339,2.971 Z" stroke-width="0" marker-start="none" marker-end="none" stroke-miterlimit="277.222222222222"/>
           <path d="M 135.426,2.71 C 135.171,3.037 135.043,3.467 135.043,4 L 135.043,4.072 C 135.043,4.667 135.17,5.146 135.424,5.511 C 135.678,5.876 136.034,6.058 136.492,6.058 C 136.709,6.058 136.901,6.018 137.068,5.938 C 137.236,5.859 137.379,5.742 137.497,5.59 L 137.497,7.623 L 138.171,7.623 L 138.171,2.291 L 137.655,2.291 L 137.552,2.759 C 137.431,2.582 137.282,2.447 137.104,2.356 C 136.926,2.265 136.72,2.219 136.485,2.219 C 136.034,2.219 135.681,2.383 135.426,2.71 Z M 137.162,2.903 C 137.299,2.994 137.411,3.122 137.497,3.286 L 137.497,5.012 C 137.411,5.165 137.298,5.286 137.161,5.376 C 137.023,5.466 136.857,5.511 136.663,5.511 C 136.34,5.511 136.101,5.378 135.947,5.111 C 135.793,4.844 135.716,4.498 135.716,4.072 L 135.716,4 C 135.716,3.626 135.793,3.327 135.945,3.103 C 136.098,2.878 136.335,2.766 136.656,2.766 C 136.857,2.766 137.026,2.812 137.162,2.903 Z" stroke-width="0" marker-start="none" marker-end="none" stroke-miterlimit="277.222222222222"/>
           <path d="M 139.055,2.291 L 139.055,5.989 L 139.728,5.989 L 139.728,2.291 L 139.055,2.291 Z M 139.055,6.936 L 139.055,7.623 L 139.728,7.623 L 139.728,6.936 L 139.055,6.936 Z" stroke-width="0" marker-start="none" marker-end="none" stroke-miterlimit="277.222222222222"/>
           <path d="M 140.588,2.291 L 140.588,5.989 L 141.189,5.989 L 141.237,5.439 C 141.36,5.635 141.515,5.787 141.7,5.895 C 141.886,6.004 142.098,6.058 142.334,6.058 C 142.733,6.058 143.042,5.941 143.261,5.708 C 143.48,5.474 143.589,5.113 143.589,4.626 L 143.589,2.291 L 142.916,2.291 L 142.916,4.612 C 142.916,4.938 142.851,5.169 142.722,5.306 C 142.594,5.443 142.397,5.511 142.133,5.511 C 141.926,5.511 141.749,5.469 141.605,5.386 C 141.46,5.303 141.345,5.186 141.261,5.036 L 141.261,2.291 L 140.588,2.291 Z" stroke-width="0" marker-start="none" marker-end="none" stroke-miterlimit="277.222222222222"/>
           <path d="M 145.22,0.871 C 145.014,0.92 144.832,0.986 144.674,1.071 L 144.777,1.594 C 144.907,1.525 145.064,1.47 145.247,1.428 C 145.43,1.386 145.611,1.365 145.789,1.365 C 146.117,1.365 146.356,1.439 146.505,1.589 C 146.654,1.738 146.729,1.965 146.729,2.27 L 146.729,2.691 C 146.608,2.536 146.463,2.419 146.295,2.339 C 146.126,2.259 145.931,2.219 145.71,2.219 C 145.259,2.219 144.906,2.383 144.652,2.71 C 144.398,3.037 144.271,3.467 144.271,4 L 144.271,4.072 C 144.271,4.667 144.398,5.146 144.652,5.511 C 144.906,5.876 145.261,6.058 145.717,6.058 C 145.952,6.058 146.158,6.011 146.336,5.916 C 146.514,5.821 146.663,5.685 146.784,5.508 L 146.866,5.989 L 147.402,5.989 L 147.402,2.27 C 147.402,1.796 147.264,1.432 146.989,1.178 C 146.713,0.924 146.315,0.797 145.796,0.797 C 145.618,0.797 145.426,0.822 145.22,0.871 Z M 146.39,2.905 C 146.527,2.997 146.64,3.127 146.729,3.296 L 146.729,4.998 C 146.642,5.155 146.529,5.28 146.39,5.372 C 146.251,5.465 146.084,5.511 145.888,5.511 C 145.567,5.511 145.329,5.378 145.175,5.111 C 145.021,4.844 144.944,4.498 144.945,4.072 L 144.945,4 C 144.944,3.629 145.021,3.33 145.174,3.105 C 145.326,2.879 145.562,2.766 145.881,2.766 C 146.084,2.766 146.254,2.812 146.39,2.905 Z" stroke-width="0" marker-start="none" marker-end="none" stroke-miterlimit="277.222222222222"/>
           <path d="M 150.04,2.729 C 149.742,3.068 149.594,3.515 149.594,4.068 L 149.594,4.219 C 149.594,4.75 149.747,5.189 150.053,5.537 C 150.36,5.884 150.734,6.058 151.176,6.058 C 151.671,6.058 152.042,5.904 152.289,5.596 C 152.536,5.289 152.66,4.88 152.66,4.369 L 152.66,4.014 L 150.294,4.014 L 150.284,3.997 C 150.284,3.625 150.366,3.324 150.53,3.093 C 150.694,2.861 150.945,2.746 151.282,2.746 C 151.51,2.746 151.71,2.778 151.882,2.843 C 152.054,2.908 152.202,2.997 152.325,3.111 L 152.588,2.674 C 152.456,2.546 152.281,2.439 152.065,2.351 C 151.848,2.263 151.588,2.219 151.282,2.219 C 150.751,2.219 150.337,2.389 150.04,2.729 Z M 151.986,4.544 L 151.986,4.598 C 151.986,4.867 151.92,5.089 151.788,5.265 C 151.656,5.44 151.452,5.528 151.176,5.528 C 150.942,5.528 150.747,5.437 150.593,5.256 C 150.44,5.075 150.346,4.843 150.311,4.561 L 150.318,4.544 L 151.986,4.544 Z" stroke-width="0" marker-start="none" marker-end="none" stroke-miterlimit="277.222222222222"/>
           <path d="M 153.239,2.291 L 153.239,5.989 L 153.84,5.989 L 153.905,5.449 C 154.01,5.641 154.139,5.79 154.293,5.897 C 154.447,6.004 154.624,6.058 154.825,6.058 C 154.875,6.058 154.923,6.054 154.968,6.046 C 155.014,6.038 155.052,6.029 155.081,6.02 L 154.989,5.395 L 154.644,5.415 C 154.466,5.415 154.316,5.373 154.194,5.289 C 154.072,5.204 153.978,5.086 153.912,4.933 L 153.912,2.291 L 153.239,2.291 Z" stroke-width="0" marker-start="none" marker-end="none" stroke-miterlimit="277.222222222222"/>
           <path d="M 155.69,2.515 C 155.488,2.712 155.387,2.984 155.387,3.33 C 155.387,3.683 155.53,3.96 155.816,4.159 C 156.102,4.358 156.49,4.458 156.98,4.458 L 157.712,4.458 L 157.712,4.824 C 157.712,5.04 157.646,5.212 157.513,5.338 C 157.381,5.465 157.194,5.528 156.953,5.528 C 156.734,5.528 156.558,5.473 156.423,5.364 C 156.289,5.255 156.221,5.124 156.221,4.971 L 155.582,4.964 L 155.575,4.985 C 155.559,5.253 155.685,5.5 155.953,5.723 C 156.221,5.946 156.567,6.058 156.99,6.058 C 157.41,6.058 157.747,5.951 158.002,5.738 C 158.257,5.525 158.385,5.218 158.385,4.817 L 158.385,3.036 C 158.385,2.904 158.392,2.776 158.406,2.653 C 158.419,2.53 158.444,2.41 158.481,2.291 L 157.787,2.291 C 157.764,2.403 157.746,2.501 157.734,2.587 C 157.721,2.672 157.714,2.758 157.712,2.845 C 157.586,2.667 157.423,2.518 157.221,2.399 C 157.019,2.279 156.802,2.219 156.57,2.219 C 156.185,2.219 155.892,2.318 155.69,2.515 Z M 157.329,2.971 C 157.525,3.097 157.653,3.24 157.712,3.402 L 157.712,4.003 L 156.956,4.003 C 156.685,4.003 156.468,3.935 156.305,3.798 C 156.142,3.662 156.061,3.501 156.061,3.316 C 156.061,3.152 156.112,3.023 156.214,2.927 C 156.317,2.831 156.469,2.783 156.669,2.783 C 156.913,2.783 157.133,2.846 157.329,2.971 Z" stroke-width="0" marker-start="none" marker-end="none" stroke-miterlimit="277.222222222222"/>
          </g>
         </g>
        </g>
       </g>
      </g>
     </g>
    </g>
   </g>
  </g>
 </g>
</svg>
