<svg style="fill: #fff" xmlns="http://www.w3.org/2000/svg" viewBox="0 0 55.56 33.75"><title>money</title><g id="Слой_2" data-name="Слой 2"><g id="Слой_1-2" data-name="Слой 1"><path d="M55.4,14.35a17.32,17.32,0,0,0-5.72-11A13.36,13.36,0,0,0,41,0H36.11A12.26,12.26,0,0,0,33.84.2,14.42,14.42,0,0,0,24.2,7a18.7,18.7,0,0,0-2.63,12.39,17.33,17.33,0,0,0,5.72,11,14.15,14.15,0,0,0,4.15,2.5,12.89,12.89,0,0,0,4.57.86h3.92c.31,0,.63,0,.94,0a12.94,12.94,0,0,0,2.26-.2,14.42,14.42,0,0,0,9.64-6.76,18.41,18.41,0,0,0,2.78-9.15A19.63,19.63,0,0,0,55.4,14.35Zm-26,13.57a14.12,14.12,0,0,1-4.63-9A15.49,15.49,0,0,1,26.91,8.67a12.3,12.3,0,0,1,3.7-3.79A16.54,16.54,0,0,0,29,7,18.7,18.7,0,0,0,26.37,19.4a17.74,17.74,0,0,0,4.07,9.32A11.55,11.55,0,0,1,29.38,27.92Zm20.68-2.84a11.27,11.27,0,0,1-7.49,5.31,9.59,9.59,0,0,1-5.18-.49A11,11,0,0,1,34.18,28h0a14.12,14.12,0,0,1-4.63-9A15.48,15.48,0,0,1,31.71,8.72,11.26,11.26,0,0,1,39.2,3.4a9.66,9.66,0,0,1,1.71-.15,10.23,10.23,0,0,1,6.69,2.58,14.12,14.12,0,0,1,4.63,9A15.5,15.5,0,0,1,50.06,25.08Z"/><path d="M41.92,16V12.1A4.48,4.48,0,0,1,44,13.81L45.5,12a5.91,5.91,0,0,0-3.58-2.23V7.49H40.2V9.7a4.05,4.05,0,0,0-3.76,4.11c0,2.4,1.41,3.86,3.76,4.34v4.17a4.47,4.47,0,0,1-2.61-2.11l-1.45,1.71a6,6,0,0,0,4.06,2.71v2.23h1.72V24.68a4.11,4.11,0,0,0,4-4.19C45.93,18.15,44.67,16.5,41.92,16Zm-1.72-.35a1.85,1.85,0,0,1,0-3.67Zm1.72,6.82v-4c1.38.35,1.86,1.13,1.86,2A1.92,1.92,0,0,1,41.92,22.45Z"/><path d="M13.33,15.39H9.07V11.13a1.6,1.6,0,1,0-3.2,0v4.26H1.6a1.6,1.6,0,1,0,0,3.2H5.87v4.26a1.6,1.6,0,1,0,3.2,0V18.6h4.26a1.6,1.6,0,0,0,0-3.2Z"/></g></g></svg>