<svg style="fill: #fff" xmlns="http://www.w3.org/2000/svg" viewBox="0 0 8.4 14.3">
<path class="cls-1" d="M4.16,2a1.54,1.54,0,0,1,1.5,1.5A1.54,1.54,0,0,1,4.16,5a1.54,1.54,0,0,1-1.5-1.5A1.47,1.47,0,0,1,4.16,2Zm0,5.4a3.76,3.76,0,0,0,3.7-3.7A3.69,3.69,0,0,0,4.16,0,3.58,3.58,0,0,0,.36,3.6a3.93,3.93,0,0,0,3.8,3.8m1.5,3a8.49,8.49,0,0,0,2.2-.9,1.1,1.1,0,1,0-1.1-1.9,4.71,4.71,0,0,1-5.1,0A1,1,0,0,0,.16,8a1,1,0,0,0,.4,1.5,8.49,8.49,0,0,0,2.2.9L.66,12.5a1.09,1.09,0,0,0,0,1.5,1.14,1.14,0,0,0,.8.3,1.14,1.14,0,0,0,.8-.3l2-2,2,2a1.06,1.06,0,0,0,1.5-1.5l-2.1-2.1"/></svg>