<svg style="fill: #fff" xmlns="http://www.w3.org/2000/svg" viewBox="0 0 76.09 73.01"><defs>
</defs>
<path class="cls-1" d="M36.73,15.16A21.81,21.81,0,0,1,52,21.75v0a3.16,3.16,0,0,1,3.11-3.39h.46A3.45,3.45,0,0,1,59,21.89v30a2,2,0,0,0,3.27,1.72c4.82-5,10.59-25.49-3-37.38C46.6,5.19,29.6,7,20.56,13.25a29.22,29.22,0,0,0-9.79,35.08c6.51,15,25.15,19.51,36.22,15,5.61-2.26,8.2,5.32,2.37,7.79-8.8,3.75-33.3,3.37-44.74-16.45C-3.1,41.33-2.69,17.77,17.82,5.57,33.5-3.76,54.18-1.17,66.65,11.85c13,13.61,12.28,39.11-.44,49C60.45,65.37,51.9,61,52,54.43l-.06-2.15a21.4,21.4,0,0,1-15.16,6.3c-11.49,0-21.6-10.11-21.6-21.6s10.11-21.83,21.6-21.83Zm14.46,21C50.76,27.74,44.51,22.68,37,22.68h-.28c-8.7,0-13.53,6.84-13.53,14.62,0,8.71,5.84,14.2,13.5,14.2A14.16,14.16,0,0,0,51.21,37.86Z"/>
</svg>